<?xml version="1.0" encoding="UTF-8"?><svg id="Layer_1" xmlns="http://www.w3.org/2000/svg" viewBox="0 0 491.38 176.96"><defs><style>.cls-1{fill:#ff5700;}</style></defs><path class="cls-1" d="M302.37,105.29c0-6.5-2.87-12.34-7.4-16.32h-.01c-.43-.5-.88-.97-1.35-1.41h29.34c11.98,0,21.73-9.75,21.73-21.73,0-6.5-2.87-12.35-7.41-16.32-.62-.71-1.29-1.38-2-2-.62-.71-1.29-1.38-2-2-.62-.71-1.29-1.38-2-2-.62-.71-1.29-1.38-2-2-.62-.71-1.29-1.38-2-2-3.97-4.54-9.82-7.41-16.32-7.41h-126.94c-7.64,0-14.36,3.87-18.23,9.86-.28-.28-.56-.54-.86-.79-.62-.72-1.29-1.39-2-2-.62-.72-1.29-1.39-2-2-3.66-4.23-9.08-6.91-15.1-6.91H41.43c-5.14,0-10.02,1.95-13.76,5.49L6.51,55.82c-3.97,3.76-6.24,9.05-6.24,14.51v21.99c0,6.02,2.67,11.43,6.9,15.1.62.71,1.29,1.38,2,2,.62.71,1.29,1.38,2,2,.62.71,1.29,1.38,2,2,.62.71,1.29,1.38,2,2,.38.43.77.85,1.18,1.24-9.29,1.72-16.35,9.88-16.35,19.66,0,6.03,2.69,11.45,6.93,15.12.61.72,1.28,1.38,2,2,.61.72,1.28,1.38,2,2,.61.72,1.28,1.38,2,2,.61.72,1.28,1.38,2,2,.61.72,1.28,1.38,2,2,3.66,4.21,9.06,6.88,15.07,6.88h101.7c5.48,0,10.78-2.29,14.54-6.27l11.41-12.07c.8,1.01,1.69,1.95,2.67,2.8.62.71,1.29,1.38,2,2,.62.71,1.29,1.38,2,2,.62.71,1.29,1.38,2,2,.62.71,1.29,1.38,2,2,.62.71,1.29,1.38,2,2,3.55,4.04,8.59,6.77,14.35,7.29.64.06,1.3.08,1.96.08,11.32,0,20.62-8.5,21.63-19.79l2.09-23.34h68.29c11.98,0,21.73-9.75,21.73-21.73ZM12.52,136.63c-.02-.1-.02-.21-.02-.31,0-4.14,3.36-7.5,7.5-7.5h98.47l.47-.5,1.89-2,1.89-2,1.89-2,13.74-14.55-.06-7.95H20.27c-4.14,0-7.5-3.35-7.5-7.5v-21.99c0-2.06.84-4.02,2.34-5.44l21.16-20.07c1.4-1.32,3.24-2.06,5.16-2.06h104.39c4.14,0,7.5,3.36,7.5,7.5s-3.36,7.5-7.5,7.5H44.42l-16.65,15.8v11.26h117.96c4.12,0,7.47,3.32,7.5,7.44l.15,18.41c.01,1.93-.72,3.8-2.05,5.21l-24.17,25.59c-1.42,1.5-3.39,2.35-5.46,2.35H20c-2.67,0-5.01-1.39-6.33-3.49-.69-1.08-1.11-2.34-1.15-3.7ZM167.67,138.7c-.1-.36-.17-.73-.22-1.1-.08-.65-.09-1.32-.03-2l.21-2.3.43-4.82.61-6.87v-.04s1.16-12.87,1.16-12.87v-.02l1.35-14.99v-.03l.23-2.62v-.02l.09-.96.02-.19,1.29-14.38.49-5.54,1.45-16.14v-.08s.01-.01.01-.01l.06-.71c.03-.35.08-.69.15-1.02.85-4.19,4.5-7.3,8.84-7.39h127.14c5.09,0,9.23,4.13,9.23,9.23s-4.14,9.23-9.23,9.23h-118.5l-1.88,21h78.07c5.1,0,9.23,4.13,9.23,9.23s-4.13,9.23-9.23,9.23h-79.72l-3.11,34.73c-.43,4.8-4.46,8.4-9.18,8.4-.28,0-.56-.01-.84-.03-3.25-.29-5.96-2.23-7.37-4.93-.32-.62-.58-1.29-.75-1.99Z"/><path class="cls-1" d="M372.84,99.89s-43.45,41.87-106.72,41.87h-46.35v6.97c36-.1,58.37-.37,62.9-.8,7.39-.71,14.52-2.04,14.52-2.04,0,0,7.96-1.48,15.82-3.76,24.72-7.17,44.68-19.09,59.39-30.01,39.66-28.29,79.32-56.58,118.98-84.86V0l-118.53,99.89Z"/><path class="cls-1" d="M320.15,150.32c-12.09,3.48-24.42,5.34-36.79,5.51l-17.23.24h-46.35v6.97c33.18-.09,54.79-.32,61.51-.7,1.06-.06,2.12.02,3.18,0,42.31-.96,65.22-11.09,65.22-11.09l93.76-38.84v-26.7l-73.13,43.7c-11.89,7.14-33.27,16.04-50.16,20.91Z"/><path class="cls-1" d="M321.9,168.93c-4.44.72-8.9,1.07-13.37,1.07h-25.17l-17.23.24h-46.35v6.71c32.98-.11,54.55-.29,61.51-.45,1.06-.02,2.12.02,3.18,0l110.57-.03v-27.36l-55.41,16.26c-4.4,1.28-12.08,2.64-17.72,3.55Z"/></svg>