<svg xmlns="http://www.w3.org/2000/svg" viewBox="0 0 1024 1024" xmlns:c2pa="http://c2pa.org/manifest"><metadata><c2pa:manifest>AAAWgmp1bWIAAAAeanVtZGMycGEAEQAQgAAAqgA4m3EDYzJwYQAAABZcanVtYgAAAEdqdW1kYzJtYQARABCAAACqADibcQN1cm46YzJwYTpiYjVlMGU2NS1jMGYwLTRmN2MtODBmMi03NThjNGM0ODlmNzcAAAADl2p1bWIAAAApanVtZGMyYXMAEQAQgAAAqgA4m3EDYzJwYS5hc3NlcnRpb25zAAAAALxqdW1iAAAARGp1bWRjYm9yABEAEIAAAKoAOJtxE2MycGEuaW5ncmVkaWVudC52MwAAAAAYYzJzaKgGkSTF7qZ4qjhXZw31uYYAAABwY2JvcqNpZGM6Zm9ybWF0bWltYWdlL3N2Zyt4bWxqaW5zdGFuY2VJRHgseG1wOmlpZDpmNmZmMDY4YS1hMDExLTQ3NjAtOTEwOC03ODhiZWIwZDg3ZGVscmVsYXRpb25zaGlwaHBhcmVudE9mAAAB4mp1bWIAAABBanVtZGNib3IAEQAQgAAAqgA4m3ETYzJwYS5hY3Rpb25zLnYyAAAAABhjMnNoeNo1AzeNjnR3qVbK1FQf+AAAAZljYm9yomdhY3Rpb25zgqJmYWN0aW9ua2MycGEub3BlbmVkanBhcmFtZXRlcnOha2luZ3JlZGllbnRzgaJjdXJseC1zZWxmI2p1bWJmPWMycGEuYXNzZXJ0aW9ucy9jMnBhLmluZ3JlZGllbnQudjNkaGFzaFgggawg9hGQU+spANMNV8c5vARiCdQGuboKfAPCfm4dCVikZmFjdGlvbngdY29tLmFudGhyb3BpYy5jbGF1ZGUucHJvdmlkZWRqcGFyYW1ldGVyc6F4H2NvbS5hbnRocm9waWMub3JpZ2luLWNvbmZpZGVuY2VndW5rbm93bmtkZXNjcmlwdGlvbnhmQ2xhdWRlIHByb3ZpZGVkIHRoaXMgZmlsZSBhdCB0aGUgcmVxdWVzdCBvZiBhIHVzZXIgYW5kIG1heSBoYXZlIGNyZWF0ZWQgb3IgbW9kaWZpZWQgdGhlIGZpbGUgY29udGVudHMubXNvZnR3YXJlQWdlbnShZG5hbWVmQ2xhdWRlcmFsbEFjdGlvbnNJbmNsdWRlZPUAAADIanVtYgAAAEBqdW1kY2JvcgARABCAAACqADibcRNjMnBhLmhhc2guZGF0YQAAAAAYYzJzaBS/V810gqGEERp2m/8BnTYAAACAY2JvcqVjYWxnZnNoYTI1NmNwYWRNAAAAAAAAAAAAAAAAAGRoYXNoWCD35vvAMjNsfkGRl8wSzirN+CYmVsNIS4yK+IlOeOWEQWRuYW1lbmp1bWJmIG1hbmlmZXN0amV4Y2x1c2lvbnOBomVzdGFydBh/Zmxlbmd0aBkeBAAAAj5qdW1iAAAAJ2p1bWRjMmNsABEAEIAAAKoAOJtxA2MycGEuY2xhaW0udjIAAAACD2Nib3KlY2FsZ2ZzaGEyNTZpc2lnbmF0dXJleE1zZWxmI2p1bWJmPS9jMnBhL3VybjpjMnBhOmJiNWUwZTY1LWMwZjAtNGY3Yy04MGYyLTc1OGM0YzQ4OWY3Ny9jMnBhLnNpZ25hdHVyZWppbnN0YW5jZUlEeCx4bXA6aWlkOmIzNjRhMWI1LTdhODktNDRlZS05ZWI1LTQ3YzE2ZWQyNDRhN3JjcmVhdGVkX2Fzc2VydGlvbnODomN1cmx4LXNlbGYjanVtYmY9YzJwYS5hc3NlcnRpb25zL2MycGEuaW5ncmVkaWVudC52M2RoYXNoWCCBrCD2EZBT6ykA0w1Xxzm8BGIJ1Aa5ugp8A8J+bh0JWKJjdXJseCpzZWxmI2p1bWJmPWMycGEuYXNzZXJ0aW9ucy9jMnBhLmFjdGlvbnMudjJkaGFzaFggct+WrwN775fRVen5MTzzDYC5jx3ZU9qM4t8o5wFSEUGiY3VybHgpc2VsZiNqdW1iZj1jMnBhLmFzc2VydGlvbnMvYzJwYS5oYXNoLmRhdGFkaGFzaFggTIOO2L+/WXdhp8sIm8S9uvQ+x7lLwkx+uI5jawfZE5Z0Y2xhaW1fZ2VuZXJhdG9yX2luZm+jZG5hbWVvQW50aHJvcGljIEZpbGVzZ3ZlcnNpb25lMS4wLjBrc3BlY1ZlcnNpb25lMi40LjAAABA4anVtYgAAAChqdW1kYzJjcwARABCAAACqADibcQNjMnBhLnNpZ25hdHVyZQAAABAIY2JvctKEWQISogEmGCFZAgowggIGMIIBjaADAgECAhRA5aAK7sI50L64g/oGQgU9Z1UTADAKBggqhkjOPQQDAzBJMRcwFQYDVQQKEw5BbnRocm9waWMsIFBCQzEuMCwGA1UEAxMlQW50aHJvcGljIENvbnRlbnQgQ3JlZGVudGlhbHMgUm9vdCBDQTAeFw0yNjA4MDcxODQzNTZaFw0yODA4MDYxOTQzNTZaMEQxFzAVBgNVBAoTDkFudGhyb3BpYywgUEJDMSkwJwYDVQQDEyBBbnRocm9waWMgQ2xhdWRlIENvbnRlbnQgU2lnbmluZzBZMBMGByqGSM49AgEGCCqGSM49AwEHA0IABJh6CmvLUBgFFNU0vUKlOVtE6djd17L5SuwX0LemFisBM3dkd/3cyjxFA3Qo5S46fX0/ihY0VZ7mfb9KF703t5OjWDBWMA4GA1UdDwEB/wQEAwIHgDAVBgNVHSUEDjAMBgorBgEEAYPoXgIBMAwGA1UdEwEB/wQCMAAwHwYDVR0jBBgwFoAUzlHiBIFOZFsj+OPEz5o+nMHXXMIwCgYIKoZIzj0EAwMDZwAwZAIwMXMdFJ4BetLLVY7ORuE9noqbbAZOZn/aArXyTwFAZfKrPzxF2vPoJNf1+UCdg1XGAjBwX1zd9WGqYkqmL5SFqw1QySjr1zJfpJM9+1rdDwSPLMOPOjKuiXjoU/pUUeG9RwmhY3BhZFkNngAAAAAAAAAAAAAAAAAAAAAAAAAAAAAAAAAAAAAAAAAAAAAAAAAAAAAAAAAAAAAAAAAAAAAAAAAAAAAAAAAAAAAAAAAAAAAAAAAAAAAAAAAAAAAAAAAAAAAAAAAAAAAAAAAAAAAAAAAAAAAAAAAAAAAAAAAAAAAAAAAAAAAAAAAAAAAAAAAAAAAAAAAAAAAAAAAAAAAAAAAAAAAAAAAAAAAAAAAAAAAAAAAAAAAAAAAAAAAAAAAAAAAAAAAAAAAAAAAAAAAAAAAAAAAAAAAAAAAAAAAAAAAAAAAAAAAAAAAAAAAAAAAAAAAAAAAAAAAAAAAAAAAAAAAAAAAAAAAAAAAAAAAAAAAAAAAAAAAAAAAAAAAAAAAAAAAAAAAAAAAAAAAAAAAAAAAAAAAAAAAAAAAAAAAAAAAAAAAAAAAAAAAAAAAAAAAAAAAAAAAAAAAAAAAAAAAAAAAAAAAAAAAAAAAAAAAAAAAAAAAAAAAAAAAAAAAAAAAAAAAAAAAAAAAAAAAAAAAAAAAAAAAAAAAAAAAAAAAAAAAAAAAAAAAAAAAAAAAAAAAAAAAAAAAAAAAAAAAAAAAAAAAAAAAAAAAAAAAAAAAAAAAAAAAAAAAAAAAAAAAAAAAAAAAAAAAAAAAAAAAAAAAAAAAAAAAAAAAAAAAAAAAAAAAAAAAAAAAAAAAAAAAAAAAAAAAAAAAAAAAAAAAAAAAAAAAAAAAAAAAAAAAAAAAAAAAAAAAAAAAAAAAAAAAAAAAAAAAAAAAAAAAAAAAAAAAAAAAAAAAAAAAAAAAAAAAAAAAAAAAAAAAAAAAAAAAAAAAAAAAAAAAAAAAAAAAAAAAAAAAAAAAAAAAAAAAAAAAAAAAAAAAAAAAAAAAAAAAAAAAAAAAAAAAAAAAAAAAAAAAAAAAAAAAAAAAAAAAAAAAAAAAAAAAAAAAAAAAAAAAAAAAAAAAAAAAAAAAAAAAAAAAAAAAAAAAAAAAAAAAAAAAAAAAAAAAAAAAAAAAAAAAAAAAAAAAAAAAAAAAAAAAAAAAAAAAAAAAAAAAAAAAAAAAAAAAAAAAAAAAAAAAAAAAAAAAAAAAAAAAAAAAAAAAAAAAAAAAAAAAAAAAAAAAAAAAAAAAAAAAAAAAAAAAAAAAAAAAAAAAAAAAAAAAAAAAAAAAAAAAAAAAAAAAAAAAAAAAAAAAAAAAAAAAAAAAAAAAAAAAAAAAAAAAAAAAAAAAAAAAAAAAAAAAAAAAAAAAAAAAAAAAAAAAAAAAAAAAAAAAAAAAAAAAAAAAAAAAAAAAAAAAAAAAAAAAAAAAAAAAAAAAAAAAAAAAAAAAAAAAAAAAAAAAAAAAAAAAAAAAAAAAAAAAAAAAAAAAAAAAAAAAAAAAAAAAAAAAAAAAAAAAAAAAAAAAAAAAAAAAAAAAAAAAAAAAAAAAAAAAAAAAAAAAAAAAAAAAAAAAAAAAAAAAAAAAAAAAAAAAAAAAAAAAAAAAAAAAAAAAAAAAAAAAAAAAAAAAAAAAAAAAAAAAAAAAAAAAAAAAAAAAAAAAAAAAAAAAAAAAAAAAAAAAAAAAAAAAAAAAAAAAAAAAAAAAAAAAAAAAAAAAAAAAAAAAAAAAAAAAAAAAAAAAAAAAAAAAAAAAAAAAAAAAAAAAAAAAAAAAAAAAAAAAAAAAAAAAAAAAAAAAAAAAAAAAAAAAAAAAAAAAAAAAAAAAAAAAAAAAAAAAAAAAAAAAAAAAAAAAAAAAAAAAAAAAAAAAAAAAAAAAAAAAAAAAAAAAAAAAAAAAAAAAAAAAAAAAAAAAAAAAAAAAAAAAAAAAAAAAAAAAAAAAAAAAAAAAAAAAAAAAAAAAAAAAAAAAAAAAAAAAAAAAAAAAAAAAAAAAAAAAAAAAAAAAAAAAAAAAAAAAAAAAAAAAAAAAAAAAAAAAAAAAAAAAAAAAAAAAAAAAAAAAAAAAAAAAAAAAAAAAAAAAAAAAAAAAAAAAAAAAAAAAAAAAAAAAAAAAAAAAAAAAAAAAAAAAAAAAAAAAAAAAAAAAAAAAAAAAAAAAAAAAAAAAAAAAAAAAAAAAAAAAAAAAAAAAAAAAAAAAAAAAAAAAAAAAAAAAAAAAAAAAAAAAAAAAAAAAAAAAAAAAAAAAAAAAAAAAAAAAAAAAAAAAAAAAAAAAAAAAAAAAAAAAAAAAAAAAAAAAAAAAAAAAAAAAAAAAAAAAAAAAAAAAAAAAAAAAAAAAAAAAAAAAAAAAAAAAAAAAAAAAAAAAAAAAAAAAAAAAAAAAAAAAAAAAAAAAAAAAAAAAAAAAAAAAAAAAAAAAAAAAAAAAAAAAAAAAAAAAAAAAAAAAAAAAAAAAAAAAAAAAAAAAAAAAAAAAAAAAAAAAAAAAAAAAAAAAAAAAAAAAAAAAAAAAAAAAAAAAAAAAAAAAAAAAAAAAAAAAAAAAAAAAAAAAAAAAAAAAAAAAAAAAAAAAAAAAAAAAAAAAAAAAAAAAAAAAAAAAAAAAAAAAAAAAAAAAAAAAAAAAAAAAAAAAAAAAAAAAAAAAAAAAAAAAAAAAAAAAAAAAAAAAAAAAAAAAAAAAAAAAAAAAAAAAAAAAAAAAAAAAAAAAAAAAAAAAAAAAAAAAAAAAAAAAAAAAAAAAAAAAAAAAAAAAAAAAAAAAAAAAAAAAAAAAAAAAAAAAAAAAAAAAAAAAAAAAAAAAAAAAAAAAAAAAAAAAAAAAAAAAAAAAAAAAAAAAAAAAAAAAAAAAAAAAAAAAAAAAAAAAAAAAAAAAAAAAAAAAAAAAAAAAAAAAAAAAAAAAAAAAAAAAAAAAAAAAAAAAAAAAAAAAAAAAAAAAAAAAAAAAAAAAAAAAAAAAAAAAAAAAAAAAAAAAAAAAAAAAAAAAAAAAAAAAAAAAAAAAAAAAAAAAAAAAAAAAAAAAAAAAAAAAAAAAAAAAAAAAAAAAAAAAAAAAAAAAAAAAAAAAAAAAAAAAAAAAAAAAAAAAAAAAAAAAAAAAAAAAAAAAAAAAAAAAAAAAAAAAAAAAAAAAAAAAAAAAAAAAAAAAAAAAAAAAAAAAAAAAAAAAAAAAAAAAAAAAAAAAAAAAAAAAAAAAAAAAAAAAAAAAAAAAAAAAAAAAAAAAAAAAAAAAAAAAAAAAAAAAAAAAAAAAAAAAAAAAAAAAAAAAAAAAAAAAAAAAAAAAAAAAAAAAAAAAAAAAAAAAAAAAAAAAAAAAAAAAAAAAAAAAAAAAAAAAAAAAAAAAAAAAAAAAAAAAAAAAAAAAAAAAAAAAAAAAAAAAAAAAAAAAAAAAAAAAAAAAAAAAAAAAAAAAAAAAAAAAAAAAAAAAAAAAAAAAAAAAAAAAAAAAAAAAAAAAAAAAAAAAAAAAAAAAAAAAAAAAAAAAAAAAAAAAAAAAAAAAAAAAAAAAAAAAAAAAAAAAAAAAAAAAAAAAAAAAAAAAAAAAAAAAAAAAAAAAAAAAAAAAAAAAAAAAAAAAAAAAAAAAAAAAAAAAAAAAAAAAAAAAAAAAAAAAAAAAAAAAAAAAAAAAAAAAAAAAAAAAAAAAAAAAAAAAAAAAAAAAAAAAAAAAAAAAAAAAAAAAAAAAAAAAAAAAAAAAAAAAAAAAAAAAAAAAAAAAAAAAAAAAAAAAAAAAAAAAAAAAAAAAAAAAAAAAAAAAAAAAAAAAAAAAAAAAAAAAAAAAAAAAAAAAAAAAAAAAAAAAAAAAAAAAAAAAAAAAAAAAAAAAAAAAAAAAAAAAAAAAAAAAAAAAAAAAAAAAAAAAAAAAAAAAAAAAAAAAAAAAAAAAAAAAAAAAAAAAAAAAAAAAAAAAAAAAAAAAAAAAAAAAAAAAAAAAAAAAAAAAAAAAAAAAAAAAAAAAAAAAAAAAAAAAAAAAAAAAAAAAAAAAAAAAAAAAAAAAAAAAAAAAAAAAAAAAAAAAAAAAAAAAAAAAAAAAAAAAAAAAAAAAAAAAAAAAAAAAAAAAAAAAAAAAAAAAAAAAAAAAAAAAAAAAAAAAAAAAAAAAAAAAAAAAAAAAAAAAAAAAAAAAAAAAAAAAAAAAAAAAAAAAAAAAAAAAAAAAAAAAAAAAAAAAAAAAAAAAAAAAAAAAAAAAAAAAAAAAAAAAAAAAAAAAAAAAAAAAAAAAAAAAAAAAAAAAAAAAAAAAAAAAAAAAAAAAAAAAAAAAAAAAAAAAAAAAAAAAAAAAAAAAAAAAAAAAAAAAAAAAAAAAAAAAAAAAAAAAAAAAAAAAAAAAAAAAAAAAAAAAAAAAAAAAAAAAAAAAAAAAAAAAAAAAAAAAAAAAAAAAAAAAAAAAAAAAAAAAAAAAAAAAAAAAAAAAAAAAAAAAAAAAAAAAAAAAAAAAAAAAAAAAAAAAAAAAAAAAAAAAAAAAAAAAAAAAAAAAAAAAAAAAAAAAAAAAAAAAAAAAAAAAAAAAAAAAAAAAAAAAAAAAAAAAAAAAAAAAAAAAAAAAAAAAAAAAAAAAAAAAAAAAAAAAAAAAAAAAAAAAAAAAAAAAAAAAAAAAAAAAAAAAAAAAAAAAAAAAAAAAAAAAAAAAAAAAAAAAAAAAAAAAAAAAAAAAAAAAAAAAAAAAAAAAAAAAAAAAAAAAAAAAAAAAAAAAAAAAAAAAAAAAAAAAAAAAAAAAAAAAAAAAAAAAAAAAAAAAAAAAAAAAAAAAAAAAAAAAAAAAAAAAAAAAAAAAAAAAAAAAAAAAAAPZYQGs/aNwHjosGDxPxqRq3kt1cWOtOCPA1A9Dz93FdzIwx6CEgy9+MykMrbdi8Bq5uJ9IITWAl7mZumsIRyijQpyI=</c2pa:manifest></metadata><rect width="1024" height="1024" fill="#050d1e"/><g id="fit" transform="translate(-54.65,-119.31) scale(1.0314)"><g class="scenery"><defs><radialGradient id="f38318g" cx="440.0" cy="790.0" r="741.6" gradientUnits="userSpaceOnUse"><stop offset="0" stop-color="#fff"/><stop offset="1" stop-color="#fff" stop-opacity="0"/></radialGradient><mask id="f38318m"><rect width="1024" height="1024" fill="url(#f38318g)"/></mask></defs><g stroke="#2a86a8" stroke-width="3" stroke-opacity="0.16" mask="url(#f38318m)"><line x1="440.0" y1="204.5" x2="-849.8" y2="790.0"/><line x1="440.0" y1="204.5" x2="1729.8" y2="790.0"/><line x1="601.2" y1="277.7" x2="-688.5" y2="863.2"/><line x1="278.8" y1="277.7" x2="1568.5" y2="863.2"/><line x1="762.4" y1="350.8" x2="-527.3" y2="936.4"/><line x1="117.6" y1="350.8" x2="1407.3" y2="936.4"/><line x1="923.7" y1="424.0" x2="-366.1" y2="1009.6"/><line x1="-43.7" y1="424.0" x2="1246.1" y2="1009.6"/><line x1="1084.9" y1="497.2" x2="-204.9" y2="1082.8"/><line x1="-204.9" y1="497.2" x2="1084.9" y2="1082.8"/><line x1="1246.1" y1="570.4" x2="-43.7" y2="1156.0"/><line x1="-366.1" y1="570.4" x2="923.7" y2="1156.0"/><line x1="1407.3" y1="643.6" x2="117.6" y2="1229.2"/><line x1="-527.3" y1="643.6" x2="762.4" y2="1229.2"/><line x1="1568.5" y1="716.8" x2="278.8" y2="1302.3"/><line x1="-688.5" y1="716.8" x2="601.2" y2="1302.3"/><line x1="1729.8" y1="790.0" x2="440.0" y2="1375.5"/><line x1="-849.8" y1="790.0" x2="440.0" y2="1375.5"/></g></g><g id="mark"><polygon points="440.0,587.5 697.9,704.6 440.0,821.7 182.0,704.6" fill="#44d0dd"/><polygon points="697.9,790.0 440.0,907.1 440.0,821.7 697.9,704.6" fill="#226d79"/><polygon points="182.0,790.0 440.0,907.1 440.0,821.7 182.0,704.6" fill="#2f93a0"/><path d="M182.0,790.0L182.0,704.6M182.0,790.0L440.0,907.1M440.0,587.5L182.0,704.6M440.0,587.5L697.9,704.6M182.0,704.6L440.0,821.7M697.9,790.0L440.0,907.1M697.9,790.0L697.9,704.6M440.0,907.1L440.0,821.7M697.9,704.6L440.0,821.7" fill="none" stroke="#cafbff" stroke-width="6.84" stroke-linecap="round" stroke-linejoin="round"/><polygon points="430.3,506.6 675.3,617.8 427.1,730.6 182.0,619.3" fill="#44d0dd"/><polygon points="675.3,703.2 427.1,815.9 427.1,730.6 675.3,617.8" fill="#226d79"/><polygon points="182.0,704.6 427.1,815.9 427.1,730.6 182.0,619.3" fill="#2f93a0"/><path d="M182.0,704.6L182.0,619.3M182.0,704.6L427.1,815.9M430.3,506.6L182.0,619.3M430.3,506.6L675.3,617.8M182.0,619.3L427.1,730.6M675.3,703.2L427.1,815.9M675.3,703.2L675.3,617.8M427.1,815.9L427.1,730.6M675.3,617.8L427.1,730.6" fill="none" stroke="#cafbff" stroke-width="6.84" stroke-linecap="round" stroke-linejoin="round"/><polygon points="440.0,425.7 675.3,532.5 440.0,639.4 204.6,532.5" fill="#44d0dd"/><polygon points="675.3,617.8 440.0,724.7 440.0,639.4 675.3,532.5" fill="#226d79"/><polygon points="204.6,617.8 440.0,724.7 440.0,639.4 204.6,532.5" fill="#2f93a0"/><path d="M204.6,617.8L204.6,532.5M204.6,617.8L440.0,724.7M440.0,425.7L204.6,532.5M440.0,425.7L675.3,532.5M204.6,532.5L440.0,639.4M675.3,617.8L440.0,724.7M675.3,617.8L675.3,532.5M440.0,724.7L440.0,639.4M675.3,532.5L440.0,639.4" fill="none" stroke="#cafbff" stroke-width="6.84" stroke-linecap="round" stroke-linejoin="round"/><polygon points="446.4,343.3 668.9,444.3 433.5,551.1 211.0,450.1" fill="#44d0dd"/><polygon points="668.9,529.6 433.5,636.5 433.5,551.1 668.9,444.3" fill="#226d79"/><polygon points="211.0,535.5 433.5,636.5 433.5,551.1 211.0,450.1" fill="#2f93a0"/><path d="M211.0,535.5L211.0,450.1M211.0,535.5L433.5,636.5M446.4,343.3L211.0,450.1M446.4,343.3L668.9,444.3M211.0,450.1L433.5,551.1M668.9,529.6L433.5,636.5M668.9,529.6L668.9,444.3M433.5,636.5L433.5,551.1M668.9,444.3L433.5,551.1" fill="none" stroke="#cafbff" stroke-width="6.84" stroke-linecap="round" stroke-linejoin="round"/><polygon points="510.9,287.2 668.9,358.9 433.5,465.8 275.5,394.1" fill="#44d0dd"/><polygon points="668.9,444.3 433.5,551.1 433.5,465.8 668.9,358.9" fill="#b0f9ff"/><polygon points="275.5,479.4 433.5,551.1 433.5,465.8 275.5,394.1" fill="#2f93a0"/><path d="M275.5,479.4L275.5,394.1M275.5,479.4L433.5,551.1M510.9,287.2L275.5,394.1M510.9,287.2L668.9,358.9M275.5,394.1L433.5,465.8M668.9,444.3L433.5,551.1M668.9,444.3L668.9,358.9M433.5,551.1L433.5,465.8M668.9,358.9L433.5,465.8" fill="none" stroke="#cafbff" stroke-width="6.84" stroke-linecap="round" stroke-linejoin="round"/><polygon points="823.0,371.6 916.7,453.6 846.7,560.9 753.0,478.9" fill="#c65534"/><polygon points="769.2,422.0 823.0,371.6 753.0,478.9 699.2,529.3" fill="#9e452d"/><polygon points="699.2,529.3 792.9,611.3 846.7,560.9 753.0,478.9" fill="#8e3f2b"/><path d="M769.2,422.0L699.2,529.3M769.2,422.0L823.0,371.6M699.2,529.3L753.0,478.9M699.2,529.3L792.9,611.3M823.0,371.6L753.0,478.9M823.0,371.6L916.7,453.6M753.0,478.9L846.7,560.9M792.9,611.3L846.7,560.9M916.7,453.6L846.7,560.9" fill="none" stroke="#ffd3c5" stroke-width="6.84" stroke-linecap="round" stroke-linejoin="round"/><polygon points="803.0,668.3 840.2,785.5 835.2,807.3 798.1,690.2" fill="#46231f"/><polygon points="711.7,695.0 803.0,668.3 798.1,690.2 706.7,716.9" fill="#bb5032"/><polygon points="706.7,716.9 743.9,834.0 835.2,807.3 798.1,690.2" fill="#ca5634"/><path d="M711.7,695.0L706.7,716.9M711.7,695.0L803.0,668.3M706.7,716.9L798.1,690.2M706.7,716.9L743.9,834.0M803.0,668.3L798.1,690.2M803.0,668.3L840.2,785.5M798.1,690.2L835.2,807.3M743.9,834.0L835.2,807.3M840.2,785.5L835.2,807.3" fill="none" stroke="#ffd3c5" stroke-width="6.84" stroke-linecap="round" stroke-linejoin="round"/></g></g></svg>